<svg xmlns="http://www.w3.org/2000/svg"  viewBox="0 0 24 24" width="48px" height="48px"><path fill="#99415B" d="M20.97,11.819l-0.001,0.001c0,0.965-0.791,1.75-1.764,1.75c-0.974-0.003-1.762-0.787-1.762-1.753	c0-0.555,0.26-1.049,0.665-1.37l0.004-0.003l0.007-0.007c0.056-0.042,0.119-0.084,0.182-0.125c0,0,0.008,0,0.008-0.007	c0.028-0.014,0.056-0.035,0.084-0.05c0.007,0,0.014-0.006,0.021-0.006c0.028-0.014,0.063-0.028,0.098-0.042	c0.034-0.014,0.071-0.027,0.099-0.041c0.007,0,0.013-0.007,0.02-0.007c0.028-0.007,0.056-0.021,0.085-0.028	c0.007,0,0.02-0.007,0.028-0.007c0.034-0.007,0.063-0.014,0.098-0.02h0.007l0.105-0.022c0.007,0,0.02,0,0.028-0.007	c0.028,0,0.056-0.007,0.084-0.007H19.1c0.035,0,0.071-0.007,0.112-0.007h0.091c0.028,0,0.05,0,0.078,0.007h0.014	c0.056,0.007,0.112,0.014,0.168,0.028C20.371,10.272,20.968,10.976,20.97,11.819z"/><path fill="#99415B" d="M10.196,11.813v-0.005c0-0.812,0.561-1.495,1.318-1.687l0.012-0.003v-0.001l0.098-0.02h0.02l0.084-0.015	h0.028l0.077-0.007h0.273l0.07,0.007l0.035,0.007l0.077,0.014l0.028,0.007l0.098,0.02h0.007l0.083,0.029l0.028,0.007l0.07,0.027	l0.021,0.007l0.084,0.035h0.007l0.091,0.05l-0.001-0.001h0.007l0.084,0.048l0.013,0.007l0.078,0.049l0.007,0.007l0.238,0.201	l0.007,0.007c0.299,0.313,0.484,0.736,0.484,1.203v0.007c-0.033,0.942-0.811,1.693-1.765,1.693c-0.954,0-1.732-0.751-1.765-1.69	V11.813L10.196,11.813z"/><path fill="#99415B" d="M2.496,17.802c0.168-1.015,0.637-1.967,1.086-2.877l0.077-0.16c0.153,0.056,0.315,0.098,0.483,0.126	c-0.266,1.473,0.49,2.994,1.962,3.745l0.266,0.139l0.287-0.104c1.225-0.431,2.361-1.132,3.363-2.07	c0.545-0.505,1.025-1.068,1.434-1.681l0.023-0.035c0.161,0.027,0.322,0.034,0.484,0.034c1.449-0.003,2.668-0.98,3.027-2.305	l0.005-0.022h1.177c0.362,1.349,1.583,2.327,3.033,2.327h0.001c0.581,0,1.119-0.16,1.583-0.43c0.182,0.52,0.238,1.063,0.14,1.605	h0.001c-0.17,0.92-0.732,1.682-1.505,2.125l-0.014,0.008c-0.764,0.438-1.703,0.577-2.691,0.716c-0.658,0.084-1.22,0.186-1.772,0.314	l0.118-0.023c-1.457,0.355-2.857,1.05-4.216,1.717c-1.738,0.854-3.377,1.66-4.896,1.66H5.927c-0.804,0-1.548-0.256-2.153-0.69	C2.237,20.863,2.313,18.885,2.496,17.802L2.496,17.802z"/><path fill="#85394F" d="M12,10.075h-0.166l-0.077,0.007h-0.028l-0.084,0.015h-0.02l-0.098,0.02v0.001l-0.012,0.003	c-0.758,0.192-1.318,0.875-1.318,1.687v0.005v0.003c0.033,0.939,0.811,1.69,1.765,1.69c0.013,0,0.026,0,0.039,0V10.075L12,10.075z"/><path fill="#85394F" d="M3.659,14.765l-0.077,0.16c-0.449,0.91-0.917,1.861-1.086,2.877c-0.182,1.083-0.259,3.061,1.279,4.117	c0.605,0.434,1.349,0.69,2.153,0.69h0.023c1.519,0,3.158-0.805,4.896-1.66c0.381-0.187,0.765-0.376,1.153-0.559v-5.473	c-0.013,0-0.027,0-0.04,0c-0.162,0-0.323-0.007-0.484-0.034l-0.023,0.035c-0.409,0.614-0.889,1.177-1.434,1.681	c-1.003,0.938-2.138,1.64-3.363,2.07L6.37,18.775l-0.266-0.139c-1.472-0.751-2.228-2.272-1.962-3.745	C3.974,14.863,3.812,14.821,3.659,14.765L3.659,14.765z"/><path fill="#99415B" d="M4.633,10.068c0.974,0,1.765,0.786,1.765,1.751c0,0.965-0.791,1.752-1.764,1.752	c-0.973,0-1.766-0.785-1.766-1.75C2.868,10.855,3.66,10.068,4.633,10.068L4.633,10.068z"/><path fill="#85394F" d="M4.633,10.068c-0.973,0-1.765,0.787-1.765,1.753c0,0.964,0.793,1.749,1.765,1.75V10.068L4.633,10.068	L4.633,10.068z"/><path fill="#85394F" d="M19.207,10.068c-0.973,0-1.765,0.787-1.765,1.753c0,0.964,0.793,1.749,1.765,1.75V10.068L19.207,10.068	L19.207,10.068z"/><path fill="#99415B" d="M10.028,1.39h11.019l-2.53,7.4c-0.105,0.02-0.21,0.055-0.314,0.09l-2.661-5.385l-2.67,5.35	c-0.105-0.034-0.218-0.055-0.33-0.076L10.028,1.39L10.028,1.39z"/><path fill="#85394F" d="M15.537,1.39h-5.509l2.514,7.379c0.112,0.021,0.225,0.042,0.33,0.076l2.666-5.342V1.39L15.537,1.39z"/></svg>