<?xml version="1.0" encoding="UTF-8" standalone="no"?>
<!-- Uploaded to: SVG Repo, www.svgrepo.com, Generator: SVG Repo Mixer Tools -->

<svg
   fill="#000000"
   width="800px"
   height="800px"
   viewBox="-9 0 32 32"
   version="1.1"
   id="svg6"
   sodipodi:docname="moon-svgrepo-com.svg"
   inkscape:version="1.2.2 (b0a8486541, 2022-12-01)"
   xmlns:inkscape="http://www.inkscape.org/namespaces/inkscape"
   xmlns:sodipodi="http://sodipodi.sourceforge.net/DTD/sodipodi-0.dtd"
   xmlns="http://www.w3.org/2000/svg"
   xmlns:svg="http://www.w3.org/2000/svg">
  <defs
     id="defs10" />
  <sodipodi:namedview
     id="namedview8"
     pagecolor="#ffffff"
     bordercolor="#000000"
     borderopacity="0.25"
     inkscape:showpageshadow="2"
     inkscape:pageopacity="0.0"
     inkscape:pagecheckerboard="0"
     inkscape:deskcolor="#d1d1d1"
     showgrid="false"
     inkscape:zoom="0.65625"
     inkscape:cx="390.09524"
     inkscape:cy="401.52381"
     inkscape:window-width="1366"
     inkscape:window-height="704"
     inkscape:window-x="0"
     inkscape:window-y="34"
     inkscape:window-maximized="1"
     inkscape:current-layer="svg6" />
  <title
     id="title2">moon</title>
  <path
     d="M7.52 23.56c-4.080 0-7.48-3.4-7.48-7.56s3.4-7.56 7.56-7.56c0.76 0 1.52 0.12 2.28 0.36 0.36 0.12 0.6 0.48 0.6 0.88-0.040 0.4-0.32 0.72-0.72 0.76-2.2 0.32-3.84 2.2-3.84 4.4 0 2.44 2 4.44 4.44 4.44 1 0 1.96-0.32 2.76-0.96 0.32-0.24 0.76-0.24 1.040 0 0.32 0.24 0.4 0.68 0.24 1.040-1.36 2.56-3.96 4.2-6.88 4.2zM6.24 10.28c-2.6 0.6-4.52 2.96-4.52 5.72 0 3.24 2.64 5.88 5.88 5.88 1.16 0 2.28-0.32 3.2-0.96-0.16 0-0.32 0-0.48 0-3.36 0-6.12-2.76-6.12-6.12-0.080-1.76 0.72-3.4 2.040-4.52z"
     id="path4" />
  <path
     style="fill:#000000;stroke:#000000;stroke-width:1.52381"
     d="M 396.19048,545.19311 C 374.52201,542.17861 344.59247,529.65682 326.85714,516.18575 274.6802,476.55412 255.4653,407.5842 279.41717,345.90476 c 13.51493,-34.80286 44.67882,-66.38533 79.76775,-80.83915 6.94353,-2.86018 13.55561,-5.21287 14.6935,-5.2282 1.13789,-0.0153 -1.90507,4.25783 -6.76214,9.49592 -17.43508,18.80283 -29.84166,42.56047 -35.0192,67.05903 -2.95111,13.96378 -2.98887,46.98868 -0.0712,62.2273 11.16022,58.28754 55.41289,105.37665 113.066,120.31316 6.62802,1.71716 19.93665,3.6026 29.57475,4.18988 l 17.52381,1.06778 L 480,530.51496 c -24.30409,12.60908 -57.23078,18.37577 -83.80952,14.67815 z"
     id="path362"
     transform="matrix(0.04,0,0,0.04,-9,0)" />
  <path
     style="fill:#000000;stroke:#000000;stroke-width:1.52381"
     d="M 397.71429,587.34074 C 302.03096,578.96651 227.04762,496.65733 227.04762,400 c 0,-48.57509 18.4403,-94.05779 52.44555,-129.35612 47.32937,-49.1291 113.40422,-68.86001 179.01491,-53.45645 14.78368,3.4708 21.26018,7.37857 25.35618,15.29936 2.80529,5.42484 2.84017,11.05794 0.10133,16.35438 -3.68797,7.13175 -7.90842,9.60875 -21.39261,12.55543 -47.50104,10.38031 -81.95194,47.09797 -89.2281,95.09903 -5.50256,36.30062 9.91717,75.70056 39.272,100.34643 11.2571,9.45127 33.25236,20.33575 46.81175,23.16504 15.496,3.23339 37.43374,2.9077 51.81007,-0.76914 14.95676,-3.8253 25.05024,-8.4245 38.10356,-17.36232 11.35194,-7.77286 18.4247,-8.99028 26.86702,-4.62459 6.0236,3.11492 11.09397,14.09626 9.61588,20.82593 -2.66653,12.14065 -28.01585,46.18908 -45.8349,61.56407 -40.51642,34.95916 -91.71666,52.12465 -142.27591,47.69969 z m 41.90476,-41.77084 c 7.54285,-1.22505 17.64454,-3.58102 22.4482,-5.2355 10.79268,-3.71721 33.17085,-15.23701 33.17085,-17.07563 0,-0.74471 -6.34286,-1.36301 -14.09524,-1.37403 -74.16037,-0.1053 -139.16429,-58.33865 -149.04366,-133.51977 -2.28992,-17.42606 -3.66193,-18.75301 -2.26137,-2.18708 3.6369,43.01769 29.51609,86.3307 66.64831,111.5467 21.56366,14.64361 45.60782,22.98133 74.04252,25.67555 8.82325,0.836 16.29104,1.76877 16.5951,2.07282 0.30405,0.30406 -4.8606,3.02735 -11.47698,6.05179 -10.47858,4.78989 -23.30234,8.63248 -42.88488,12.85032 -2.93333,0.6318 -13.90476,0.72408 -24.38095,0.20504 -21.89339,-1.08467 -36.08647,-4.93385 -58.66666,-15.91047 -42.43718,-20.62944 -72.10456,-62.63414 -78.57792,-111.25489 -4.57735,-34.38013 6.00066,-75.10096 26.55254,-102.21592 10.17198,-13.42034 30.70903,-32.23163 43.40469,-39.75734 10.97118,-6.50347 29.18845,-14.61976 30.30605,-13.50216 0.33052,0.33052 -2.63319,4.24242 -6.58603,8.6931 -20.47699,23.056 -33.21681,52.21359 -34.85819,79.77989 l -0.72967,12.25435 2.01843,-12.95238 c 5.18198,-33.25311 17.36685,-58.27754 40.12145,-82.39861 6.13248,-6.50075 9.02406,-10.55378 7.52948,-10.55378 -4.10529,0 -26.80915,8.80342 -35.82209,13.89001 -38.12197,21.51471 -64.41346,58.23907 -73.51108,102.68142 -1.02938,5.02857 -1.8716,17.02857 -1.8716,26.66667 0,9.6381 0.84222,21.6381 1.8716,26.66667 13.1992,64.47876 62.8891,111.31162 127.39043,120.06578 10.60459,1.43927 29.88073,0.91404 42.66667,-1.16255 z"
     id="path987"
     transform="matrix(0.04,0,0,0.04,-9,0)" />
  <path
     style="fill:#000000;stroke:#000000;stroke-width:1.52381"
     d="m 395.42857,587.31573 c -35.77022,-3.35774 -71.0469,-18.34029 -100.3859,-42.63547 -76.57613,-63.41152 -90.44061,-176.29338 -31.41666,-255.78824 45.44369,-61.20464 121.30641,-89.16577 194.65577,-71.74533 15.75223,3.74114 22.05626,7.37198 25.53769,14.70856 6.46311,13.61996 -1.53272,25.90871 -19.10753,29.36634 -44.1081,8.67774 -78.87189,41.78761 -89.34532,85.09464 -3.51861,14.54925 -3.14791,37.63188 0.84635,52.70076 9.49362,35.81591 36.87812,64.9552 73.01536,77.69411 12.21097,4.30455 14.85795,4.67543 33.81929,4.73844 17.45184,0.0581 22.2987,-0.47354 31.96157,-3.50514 13.07939,-4.10352 21.91694,-8.36095 35.26813,-16.99024 10.36775,-6.70101 17.91495,-7.84883 25.57207,-3.88918 8.13377,4.20612 12.55843,15.86028 9.29216,24.47469 -3.07732,8.11606 -20.77894,33.20122 -31.9378,45.25942 -39.85746,43.06973 -99.58496,65.97895 -157.77518,60.51664 z m 29.50408,-40.86785 c 1.25359,-0.79424 -5.68582,-1.58621 -17.52381,-1.9999 -16.88773,-0.59017 -21.54361,-1.34774 -33.65266,-5.47576 -43.49995,-14.82924 -72.26593,-39.87179 -90.50274,-78.7881 C 273.99148,440.4196 270.61475,424.33995 270.61475,400 c 0,-24.44948 3.37739,-40.42101 12.79914,-60.5265 15.52188,-33.12283 46.12937,-62.17335 79.06994,-75.04775 4.50896,-1.76227 8.54122,-2.86102 8.96058,-2.44166 0.41935,0.41936 -2.727,4.7904 -6.99189,9.71343 -15.26015,17.61501 -29.413,45.22975 -31.50511,61.47206 -0.61443,4.77019 0.23221,3.0859 3.00664,-5.98131 6.88098,-22.48803 17.86545,-41.33841 34.16897,-58.63719 5.35814,-5.68523 9.41676,-10.66209 9.01915,-11.0597 -1.17729,-1.1773 -20.97341,6.03658 -32.47624,11.83464 -43.15188,21.75095 -74.36421,68.4462 -78.24872,117.06411 -4.38511,54.88353 19.48552,105.28899 64.34943,135.88086 16.63804,11.34518 41.391,21.00066 61.13812,23.8484 12.30432,1.77442 28.47548,1.94562 31.02789,0.32849 z m 21.23885,-2.38379 c 18.16159,-3.8204 47.54279,-16.64216 47.54279,-20.74735 0,-0.7766 -5.31429,-1.35784 -11.80953,-1.29167 -12.75806,0.12998 -12.9966,0.58878 -1.14286,2.19835 l 7.61905,1.03456 -6.85714,3.60015 c -11.08008,5.81731 -22.60722,9.86966 -38.85714,13.66019 -16.58434,3.86854 -13.66274,5.15708 3.50483,1.54577 z m 17.47655,-23.15886 c -1.03167,-0.4174 -3.08881,-0.4428 -4.57143,-0.0565 -1.48262,0.38635 -0.63852,0.72786 1.87576,0.75892 2.51429,0.0311 3.72733,-0.28504 2.69567,-0.70246 z m -9.96551,-1.44492 c -0.50636,-0.50634 -1.82064,-0.56047 -2.92064,-0.12023 -1.21558,0.48643 -0.85452,0.84752 0.92064,0.92063 1.60634,0.0661 2.50635,-0.29399 2,-0.80034 z m -18.29033,-5.19354 c -21.47043,-7.27096 -35.69767,-15.57418 -54.01008,-31.52106 -19.94691,-17.37026 -40.08845,-50.63016 -45.7259,-75.50761 -1.47189,-6.49524 -3.13586,-11.80953 -3.69771,-11.80953 -0.56186,0 -0.0609,4.11804 1.11326,9.15119 8.41349,36.06542 32.72586,71.50903 63.64182,92.77977 13.37474,9.20205 40.92995,21.22319 49.00069,21.37685 1.67619,0.0318 -2.96875,-1.97941 -10.32208,-4.46961 z M 331.72265,388.21947 c -0.38635,-1.48262 -0.72786,-0.63852 -0.75892,1.87577 -0.031,2.51428 0.28505,3.72733 0.70246,2.69566 0.41741,-1.03166 0.44281,-3.0888 0.0565,-4.57143 z m -0.0151,-46.40995 c -0.48644,-1.21559 -0.84752,-0.85451 -0.92064,0.92064 -0.0662,1.60635 0.29399,2.50635 0.80034,2 0.50635,-0.50635 0.56048,-1.82064 0.1203,-2.92064 z"
     id="path989"
     transform="matrix(0.04,0,0,0.04,-9,0)" />
  <path
     style="fill:#000000;stroke:#000000;stroke-width:1.52381"
     d="M 392.71954,587.38513 C 345.26278,582.00478 297.12452,554.83532 267.60823,516.7717 249.6757,493.64628 239.57892,473.0604 232.07284,444.32014 226.94533,424.68727 225.58862,390.42312 229.13321,370.07895 238.93569,313.81771 271.722,266.06649 320,237.73713 c 42.08439,-24.69498 93.69029,-32.29216 139.5979,-20.55097 14.60451,3.73521 20.03267,6.86642 23.65833,13.64721 4.46208,8.34506 3.74688,15.85025 -2.11337,22.17729 -4.15366,4.48452 -7.2871,5.95726 -19.42857,9.13156 -36.09125,9.4358 -61.45492,29.36964 -77.23161,60.69796 -14.79767,29.38425 -14.96872,65.85466 -0.45153,96.27272 16.7991,35.19933 54.51131,60.52279 92.73356,62.26985 26.61408,1.21649 45.63389,-3.73187 69.23986,-18.014 16.27893,-9.84912 24.64352,-11.1995 32.2603,-5.20814 4.62193,3.63561 8.4018,11.31262 8.4018,17.06429 0,14.40762 -35.30347,58.04097 -62.88493,77.72271 -36.56306,26.09085 -87.23794,39.40604 -131.0622,34.43752 z m 25.70291,-40.87819 c -0.44278,-0.71642 -7.85468,-1.68862 -16.47089,-2.16046 -18.12759,-0.9927 -32.06659,-5.07084 -52.61779,-15.39443 -36.45471,-18.31251 -60.03495,-46.3759 -73.78161,-87.80919 -2.36352,-7.12381 -3.88383,-10.55238 -3.37847,-7.61905 1.53732,8.92331 7.87752,25.81015 13.67592,36.42528 25.51929,46.71811 72.97165,75.43223 128.33556,77.65774 2.77328,0.11154 4.68005,-0.38347 4.23728,-1.09989 z m 41.76803,-6.60463 c 14.30154,-4.603 29.96826,-12.75994 29.96826,-15.60309 0,-1.80473 -1.53247,-2.3659 -6.22224,-2.27853 l -6.22221,0.11597 5.33333,1.93712 5.33333,1.93715 -7.61905,3.85894 c -6.74666,3.41709 -21.35904,8.62127 -37.33333,13.29619 l -5.33333,1.56083 6.09524,-0.81833 c 3.35238,-0.45009 10.55238,-2.2529 16,-4.00622 z m -54.85715,-38.36648 c 0,-0.30769 -2.74285,-2.37455 -6.09523,-4.59305 -3.35239,-2.2185 -6.09524,-3.70578 -6.09524,-3.30505 0,0.66923 10.84998,8.45751 11.78229,8.45751 0.2245,0 0.40818,-0.25174 0.40818,-0.55941 z m -13.71428,-9.10918 c 0,-0.28916 -1.54286,-1.83201 -3.42857,-3.42857 l -3.42858,-2.90284 2.90285,3.42857 c 2.72795,3.222 3.9543,4.12227 3.9543,2.90284 z M 384,486.42414 c 0,-0.23816 -3.94286,-4.18102 -8.7619,-8.76191 l -8.76191,-8.3289 8.3289,8.76191 C 382.5429,486.23532 384,487.55518 384,486.42414 Z M 367.2381,468.0457 c 0,-0.28916 -1.54286,-1.83202 -3.42858,-3.42857 l -3.42857,-2.90284 2.90284,3.42857 c 2.72795,3.222 3.95431,4.12227 3.95431,2.90284 z m -10.08564,-13.18856 c -2.2185,-3.35238 -4.32584,-6.09524 -4.68298,-6.09524 -0.77181,0 0.51055,2.3025 4.45556,8 4.53953,6.55612 4.73624,4.90853 0.22742,-1.90476 z m -6.67627,-10.66666 c -0.89707,-1.67619 -1.97389,-3.04762 -2.39294,-3.04762 -0.41905,0 -0.0279,1.37143 0.86913,3.04762 0.89707,1.67619 1.9739,3.04762 2.39294,3.04762 0.41905,0 0.0279,-1.37143 -0.86913,-3.04762 z m -7.43303,-14.74286 c -1.79634,-3.08908 -2.23012,-2.10034 -0.75967,1.73156 0.52258,1.36183 1.27115,2.15507 1.66348,1.76273 0.39234,-0.39233 -0.0143,-1.96477 -0.90381,-3.49429 z m -71.43211,-5.82857 c -0.40053,-2.09524 -0.99116,-3.80953 -1.3125,-3.80953 -0.32135,0 -0.58426,1.71429 -0.58426,3.80953 0,2.09524 0.59062,3.80952 1.3125,3.80952 0.72187,0 0.98479,-1.71428 0.58426,-3.80952 z m -1.65202,-19.48899 c -0.94356,-25.83123 6.58928,-55.7104 19.4592,-77.18532 12.95284,-21.6133 35.93368,-43.86724 56.76669,-54.97111 4.9926,-2.66103 8.72172,-5.19397 8.28694,-5.62875 -1.39845,-1.39845 -20.36905,10.07646 -32.19478,19.47393 -22.09189,17.55562 -42.26536,48.80842 -49.60475,76.84786 -4.26579,16.29702 -6.12113,55.6106 -2.62492,55.62022 0.23583,6.5e-4 0.19606,-6.36992 -0.0884,-14.15683 z m 72.85144,-96.32054 c 0,-0.83809 -0.66471,-0.49523 -1.47714,0.76191 -0.81242,1.25714 -1.47714,2.97143 -1.47714,3.80952 0,0.8381 0.66472,0.49524 1.47714,-0.7619 0.81243,-1.25715 1.47714,-2.97143 1.47714,-3.80953 z m 32.157,-45.33333 c 2.93235,-3.90736 2.95765,-4.18583 0.37439,-4.12175 -1.52374,0.0378 -4.82757,1.0382 -7.34186,2.22311 -4.56657,2.15208 -4.56698,2.15345 -0.38095,1.28988 2.30476,-0.47546 4.19047,-0.37309 4.19047,0.2275 0,0.60059 -3.52036,5.64636 -7.82303,11.21281 l -7.82304,10.12083 7.8296,-8.38095 c 4.30629,-4.60952 9.24478,-10.26667 10.97442,-12.57143 z m -13.82461,1.90476 c 1.25714,-0.81243 1.6,-1.47714 0.7619,-1.47714 -0.83809,0 -2.55238,0.66471 -3.80952,1.47714 -1.25714,0.81243 -1.6,1.47714 -0.76191,1.47714 0.8381,0 2.55238,-0.66471 3.80953,-1.47714 z"
     id="path991"
     transform="matrix(0.04,0,0,0.04,-9,0)" />
  <path
     style="fill:#000000;stroke:#000000;stroke-width:1.52381"
     d="m 390.85714,587.4715 c -43.45191,-6.22963 -83.04078,-26.64866 -112.6114,-58.08243 -25.91295,-27.54561 -43.09495,-61.98147 -48.95587,-98.11646 -2.79164,-17.2116 -2.80142,-48.11093 -0.0202,-63.71249 4.65012,-26.085 16.65644,-54.718 32.14556,-76.66165 15.97585,-22.63321 44.5207,-46.97328 70.0133,-59.70006 38.63552,-19.28817 85.81486,-24.69766 127.02699,-14.56467 20.03029,4.92493 27.6227,11.66493 27.63398,24.53149 0.005,5.21909 -0.96936,7.55553 -4.94668,11.86693 -4.12953,4.47639 -7.59985,6.13278 -20.88624,9.96903 -24.11841,6.96383 -37.98832,14.83167 -53.39948,30.29135 -14.85676,14.90355 -21.27015,24.97663 -27.90802,43.83323 -4.30168,12.22007 -4.70541,15.02765 -4.76842,33.15994 -0.0577,16.61235 0.50578,21.65405 3.49141,31.2381 6.14647,19.73051 13.23992,31.38165 28.37473,46.60602 11.64748,11.7164 15.98755,14.93635 28.23887,20.95076 20.8516,10.23648 29.97312,12.15423 54.024,11.35825 23.67534,-0.78354 33.75651,-3.80263 56.97005,-17.06135 17.21373,-9.83184 25.46006,-11.13609 32.98511,-5.21688 4.71558,3.70929 8.4018,11.33752 8.4018,17.38667 0,9.80112 -20.80203,39.64542 -41.44008,59.45334 -34.75622,33.35821 -77.92913,51.46481 -126.71611,53.1444 -10.18076,0.35051 -22.62477,0.0474 -27.65334,-0.67352 z m 14.88614,-42.18531 c -1.03166,-0.41741 -3.0888,-0.44281 -4.57142,-0.0565 -1.48263,0.38635 -0.63853,0.72787 1.87576,0.75892 2.51428,0.0311 3.72733,-0.28504 2.69566,-0.70246 z m -49.29884,-11.76555 c -1.55128,-1.4039 -13.5873,-7.02883 -13.5873,-6.34991 0,0.93482 10.90362,6.76451 12.8254,6.85716 0.76825,0.037 1.11111,-0.19123 0.7619,-0.50725 z m -15.11111,-7.75275 c 0,-0.38956 -1.54285,-1.45595 -3.42857,-2.36976 -3.29238,-1.59549 -3.31108,-1.56736 -0.47066,0.70828 3.10897,2.4908 3.89923,2.82753 3.89923,1.66148 z m 147.04762,-2.33932 c -0.51797,-0.83809 -1.97033,-1.52381 -3.22747,-1.52381 -1.25714,0 -1.86193,0.68572 -1.34396,1.52381 0.51798,0.8381 1.97034,1.52381 3.22748,1.52381 1.25714,0 1.86193,-0.68571 1.34395,-1.52381 z M 269.24088,404.95238 c -0.38328,-1.46667 -0.69688,-0.26667 -0.69688,2.66667 0,2.93333 0.3136,4.13333 0.69688,2.66666 0.38328,-1.46666 0.38328,-3.86666 0,-5.33333 z m 3.03815,-37.23809 c -0.48644,-1.21559 -0.84752,-0.85453 -0.92063,0.92064 -0.0662,1.60633 0.29398,2.50634 0.80033,2 0.50635,-0.50637 0.56049,-1.82065 0.12031,-2.92064 z m 56.78436,-85.04977 c 12.13991,-8.75697 15.26723,-11.24362 12.26994,-9.7563 -10.41565,5.1685 -30.92341,23.03321 -40.06488,34.9013 -2.58219,3.35238 0.47711,0.60856 6.79844,-6.09738 6.32132,-6.70594 15.76975,-15.27737 20.9965,-19.04762 z m 48.1883,-24.01601 c -1.62047,-1.62047 -6.31292,1.47656 -6.31292,4.16654 0,2.91836 0.10298,2.91069 3.47699,-0.25902 1.91234,-1.79655 3.18851,-3.55494 2.83593,-3.90752 z"
     id="path993"
     transform="matrix(0.04,0,0,0.04,-9,0)" />
</svg>
