<?xml version="1.0" encoding="UTF-8" standalone="no"?>
<svg
   viewBox="0 0 48 48"
   width="48px"
   height="48px"
   version="1.1"
   id="svg4"
   sodipodi:docname="nextjs.svg"
   inkscape:version="1.2.2 (b0a8486541, 2022-12-01)"
   xmlns:inkscape="http://www.inkscape.org/namespaces/inkscape"
   xmlns:sodipodi="http://sodipodi.sourceforge.net/DTD/sodipodi-0.dtd"
   xmlns="http://www.w3.org/2000/svg"
   xmlns:svg="http://www.w3.org/2000/svg">
  <defs
     id="defs8" />
  <sodipodi:namedview
     id="namedview6"
     pagecolor="#ffffff"
     bordercolor="#000000"
     borderopacity="0.25"
     inkscape:showpageshadow="2"
     inkscape:pageopacity="0.0"
     inkscape:pagecheckerboard="0"
     inkscape:deskcolor="#d1d1d1"
     showgrid="false"
     inkscape:zoom="8"
     inkscape:cx="18.9375"
     inkscape:cy="23.5"
     inkscape:window-width="1366"
     inkscape:window-height="709"
     inkscape:window-x="0"
     inkscape:window-y="26"
     inkscape:window-maximized="1"
     inkscape:current-layer="svg4" />
  <path
     fill="#212121"
     d="M18.974,31.5c0,0.828-0.671,1.5-1.5,1.5s-1.5-0.672-1.5-1.5v-14c0-0.653,0.423-1.231,1.045-1.43 c0.625-0.198,1.302,0.03,1.679,0.563l16.777,23.704C40.617,36.709,44,30.735,44,24c0-11-9-20-20-20S4,13,4,24s9,20,20,20 c3.192,0,6.206-0.777,8.89-2.122L18.974,22.216V31.5z M28.974,16.5c0-0.828,0.671-1.5,1.5-1.5s1.5,0.672,1.5,1.5v13.84l-3-4.227 V16.5z"
     id="path2"
     style="stroke:#fdfdfd;stroke-opacity:1" />
</svg>
