<svg xmlns="http://www.w3.org/2000/svg" xmlns:xlink="http://www.w3.org/1999/xlink" viewBox="0,0,256,256" width="50px" height="50px" fill-rule="nonzero"><g fill-opacity="0" fill="#dddddd" fill-rule="nonzero" stroke="none" stroke-width="1" stroke-linecap="butt" stroke-linejoin="miter" stroke-miterlimit="10" stroke-dasharray="" stroke-dashoffset="0" font-family="none" font-weight="none" font-size="none" text-anchor="none" style="mix-blend-mode: normal"><path d="M0,256v-256h256v256z" id="bgRectangle"></path></g><g fill="#FFFFFF" fill-rule="nonzero" stroke="none" stroke-width="1" stroke-linecap="butt" stroke-linejoin="miter" stroke-miterlimit="10" stroke-dasharray="" stroke-dashoffset="0" font-family="none" font-weight="none" font-size="none" text-anchor="none" style="mix-blend-mode: normal"><g transform="scale(5.12,5.12)"><path d="M7,2v46h36v-46zM16.44531,14.92969c0.03516,-0.39844 0,-0.67187 0,-1.03516c-0.17969,-0.09766 -0.68359,-0.60547 -0.76172,-1.17578c0,0 -0.40625,-0.19531 -0.42969,-0.80469c-0.01172,-0.32422 0.21484,-0.55469 0.21484,-0.55469c-0.42187,-1.62891 -0.23828,-3.32031 1.94141,-3.35937c0.54297,0 0.95313,0.26172 1.11719,0.55078c1.51563,0 1.12109,2.11328 0.89453,2.80859c0.08203,0.08594 0.1875,0.32031 0.1875,0.63281c0,0.45313 -0.42969,0.72656 -0.42969,0.72656c-0.08203,0.57813 -0.48828,1.05469 -0.73437,1.17188c0,0.36328 -0.03906,0.64063 0,1.03906c0.42969,1.16016 3.30859,0.83203 3.44531,3.07031h-8.89062c0.13281,-2.23828 3.01172,-1.91016 3.44531,-3.07031zM28,39h-14c-0.55078,0 -1,-0.44531 -1,-1c0,-0.55469 0.44922,-1 1,-1h14c0.55469,0 1,0.44531 1,1c0,0.55469 -0.44531,1 -1,1zM13,32c0,-0.55469 0.44922,-1 1,-1h11c0.55078,0 1,0.44531 1,1c0,0.55469 -0.44922,1 -1,1h-11c-0.55078,0 -1,-0.44531 -1,-1zM28,27h-14c-0.55078,0 -1,-0.44531 -1,-1c0,-0.55078 0.44922,-1 1,-1h14c0.55469,0 1,0.44922 1,1c0,0.55469 -0.44531,1 -1,1zM36,39h-3c-0.55469,0 -1,-0.44531 -1,-1c0,-0.55469 0.44531,-1 1,-1h3c0.55469,0 1,0.44531 1,1c0,0.55469 -0.44531,1 -1,1zM36,33h-3c-0.55469,0 -1,-0.44531 -1,-1c0,-0.55469 0.44531,-1 1,-1h3c0.55469,0 1,0.44531 1,1c0,0.55469 -0.44531,1 -1,1zM36,27h-3c-0.55469,0 -1,-0.44531 -1,-1c0,-0.55078 0.44531,-1 1,-1h3c0.55469,0 1,0.44922 1,1c0,0.55469 -0.44531,1 -1,1zM36,17h-8c-0.55469,0 -1,-0.44922 -1,-1c0,-0.55078 0.44531,-1 1,-1h8c0.55469,0 1,0.44922 1,1c0,0.55078 -0.44531,1 -1,1zM36,12h-8c-0.55469,0 -1,-0.44922 -1,-1c0,-0.55078 0.44531,-1 1,-1h8c0.55469,0 1,0.44922 1,1c0,0.55078 -0.44531,1 -1,1z"></path></g></g></svg>