<?xml version="1.0" standalone="no"?>
<!DOCTYPE svg PUBLIC "-//W3C//DTD SVG 20010904//EN"
 "http://www.w3.org/TR/2001/REC-SVG-20010904/DTD/svg10.dtd">
<svg version="1.0" xmlns="http://www.w3.org/2000/svg"
 width="467.000000pt" height="467.000000pt" viewBox="0 0 467.000000 467.000000"
 preserveAspectRatio="xMidYMid meet">

<g transform="translate(0.000000,467.000000) scale(0.100000,-0.100000)"
fill="#FFFFFF" stroke="none">
<path d="M335 4636 c-27 -7 -70 -22 -95 -33 -46 -21 -140 -101 -140 -121 0 -6
-5 -12 -10 -14 -13 -4 -60 -130 -60 -158 0 -11 -3 -20 -7 -20 -5 0 -6 -667 -3
-1482 5 -1441 6 -1484 24 -1528 47 -107 107 -172 205 -222 l65 -33 684 -3
c530 -2 683 -6 679 -15 -8 -20 -78 -177 -115 -257 -18 -41 -41 -91 -49 -110
-9 -19 -24 -52 -34 -72 -11 -20 -19 -44 -19 -52 0 -8 -7 -22 -16 -30 -13 -14
-66 -16 -429 -16 -484 0 -449 8 -442 -106 9 -147 102 -268 253 -326 l59 -23
1455 0 1455 0 59 23 c151 58 244 179 253 326 7 114 42 106 -442 106 -363 0
-416 2 -429 16 -9 8 -16 22 -16 30 0 8 -8 32 -19 52 -10 20 -25 53 -34 72 -8
19 -31 69 -49 110 -37 80 -107 237 -115 257 -4 9 149 13 679 15 l684 3 65 33
c73 37 115 73 157 135 30 43 62 126 62 159 0 10 3 18 8 18 4 0 7 657 7 1460 0
803 -3 1460 -7 1460 -5 0 -8 9 -8 20 0 28 -47 154 -60 158 -5 2 -10 8 -10 14
0 21 -95 100 -146 123 -28 13 -75 28 -103 34 -80 17 -3928 14 -3996 -3z m4001
-158 c66 -18 118 -67 143 -134 21 -54 21 -66 21 -1344 l0 -1290 -2160 0 -2160
0 0 1290 c0 1280 0 1290 21 1345 23 63 74 112 135 131 57 18 3934 19 4000 2z
m164 -3010 c0 -122 -16 -171 -71 -225 -81 -79 98 -73 -2089 -73 -2185 0 -2008
-6 -2089 73 -56 55 -71 100 -71 220 l0 97 2160 0 2160 0 0 -92z m-1655 -478
c8 -16 16 -32 16 -35 0 -2 14 -35 30 -72 16 -38 34 -77 38 -88 5 -11 21 -47
36 -80 15 -33 33 -73 40 -90 7 -16 25 -56 39 -89 14 -32 26 -60 26 -62 0 -2
-328 -4 -730 -4 -401 0 -730 2 -730 4 0 2 12 30 26 62 14 33 32 73 39 89 7 17
25 57 40 90 15 33 31 69 36 80 4 11 22 52 39 90 17 39 31 71 30 73 0 1 7 16
15 32 l16 30 489 0 489 0 16 -30z m1095 -676 c0 -8 -22 -39 -49 -67 -37 -39
-62 -56 -95 -65 -67 -18 -2845 -18 -2912 0 -33 9 -58 26 -95 65 -27 28 -49 59
-49 67 0 14 157 16 1600 16 1443 0 1600 -2 1600 -16z"/>
<path d="M2130 4310 c-16 -16 -20 -33 -20 -94 l0 -74 -36 -12 c-34 -12 -36
-11 -89 39 -82 78 -86 76 -243 -82 -158 -160 -160 -165 -81 -251 46 -50 49
-57 38 -78 -7 -13 -10 -25 -8 -28 2 -3 -33 -7 -78 -10 -119 -7 -117 -4 -121
-201 -6 -249 -1 -259 112 -259 70 0 91 -7 96 -35 2 -5 5 -16 7 -23 3 -7 -18
-37 -46 -67 -78 -83 -76 -93 62 -232 173 -177 176 -178 265 -98 51 46 69 52
103 35 16 -9 19 -22 19 -85 0 -68 2 -75 26 -94 25 -19 40 -21 204 -21 164 0
179 2 204 21 24 19 26 26 26 94 0 63 3 76 19 85 34 18 53 11 102 -35 59 -55
89 -64 126 -37 15 11 79 72 141 135 136 140 139 150 61 232 -39 41 -49 59 -44
72 5 10 9 20 9 23 5 24 24 30 91 30 115 0 119 9 113 259 -4 196 -2 194 -118
201 -44 3 -79 7 -78 10 1 3 -4 15 -11 28 -11 21 -8 28 38 78 79 86 77 91 -81
251 -157 158 -161 160 -243 82 -53 -50 -55 -51 -89 -39 l-36 12 0 74 c0 115 2
114 -230 114 -177 0 -191 -1 -210 -20z m290 -190 c0 -74 19 -110 57 -110 9 0
46 -14 82 -32 92 -45 120 -43 176 12 l45 44 50 -49 c28 -27 50 -52 50 -56 0
-4 -18 -25 -40 -47 -49 -48 -52 -87 -14 -160 24 -46 31 -69 33 -99 1 -7 10
-22 21 -33 16 -16 33 -20 90 -20 l70 0 0 -80 0 -80 -54 0 c-90 0 -120 -20
-132 -88 -3 -15 -16 -47 -30 -71 -37 -67 -33 -107 18 -158 l42 -43 -52 -52
-52 -52 -38 37 c-54 53 -87 56 -166 18 -36 -17 -74 -31 -84 -31 -11 0 -30 -9
-43 -19 -20 -16 -25 -31 -29 -88 l-5 -68 -75 0 -75 0 -5 66 c-6 75 -18 95 -63
104 -18 4 -60 21 -95 37 -77 37 -111 33 -164 -19 l-38 -37 -52 52 -52 52 42
43 c51 51 55 91 18 158 -14 24 -27 56 -30 71 -12 68 -42 88 -132 88 l-54 0 0
80 0 80 70 0 c57 0 74 4 90 20 11 11 20 26 21 33 2 30 9 53 33 99 38 73 35
112 -14 160 -22 22 -40 43 -40 47 0 4 22 29 50 56 l50 49 45 -44 c55 -54 83
-56 176 -12 36 18 73 32 82 32 38 0 57 36 57 110 l0 70 80 0 80 0 0 -70z"/>
<path d="M2274 3786 c-112 -27 -187 -95 -223 -200 -25 -76 -26 -117 -4 -187
45 -143 144 -214 298 -214 72 0 86 4 143 34 73 39 120 98 145 180 22 70 21
114 -4 186 -38 109 -112 174 -228 201 -65 16 -61 16 -127 0z m139 -164 c61
-41 72 -62 72 -134 0 -62 -2 -69 -33 -101 -18 -19 -51 -40 -73 -46 -52 -16
-107 1 -151 46 -31 32 -33 39 -33 101 0 56 4 72 22 91 40 43 76 61 123 61 27
0 56 -8 73 -18z"/>
<path d="M990 4025 l-156 -155 -247 0 -247 0 0 -75 0 -76 285 3 285 3 153 153
152 152 138 0 137 0 0 75 0 75 -172 0 -172 0 -156 -155z"/>
<path d="M3190 4105 l0 -75 137 0 138 0 152 -152 153 -153 285 -3 285 -3 0 76
0 75 -247 0 -247 0 -156 155 -156 155 -172 0 -172 0 0 -75z"/>
<path d="M340 3485 l0 -75 500 0 500 0 0 75 0 75 -500 0 -500 0 0 -75z"/>
<path d="M3340 3485 l0 -75 500 0 500 0 0 75 0 75 -500 0 -500 0 0 -75z"/>
<path d="M340 3175 l0 -75 249 0 248 0 151 -150 151 -150 175 0 176 0 0 70 0
70 -132 0 -132 0 -156 155 -156 155 -287 0 -287 0 0 -75z"/>
<path d="M3610 3095 l-156 -155 -132 0 -132 0 0 -70 0 -70 176 0 175 0 151
150 151 150 248 0 249 0 0 75 0 75 -287 0 -287 0 -156 -155z"/>
<path d="M1427 2332 c-86 -87 -127 -136 -127 -151 0 -39 26 -73 139 -186 l111
-110 57 58 58 57 -90 90 -90 90 88 88 87 88 -53 52 -53 52 -127 -128z"/>
<path d="M3072 2408 l-52 -53 87 -87 88 -88 -90 -90 -90 -90 58 -57 57 -58
115 115 c117 117 142 153 131 192 -3 13 -61 78 -128 145 l-123 123 -53 -52z"/>
<path d="M2046 2297 c-38 -78 -88 -181 -112 -230 l-43 -87 59 -30 c33 -17 65
-30 72 -30 11 0 217 406 226 445 2 7 -19 23 -45 35 -26 12 -56 26 -65 31 -10
5 -19 9 -20 9 -2 -1 -34 -65 -72 -143z"/>
<path d="M2345 2020 l0 -70 73 0 72 0 0 70 0 70 -72 0 -73 0 0 -70z"/>
<path d="M2650 2020 l0 -70 78 0 77 0 -3 70 -4 70 -74 0 -74 0 0 -70z"/>
</g>
</svg>
