<?xml version="1.0" encoding="UTF-8" standalone="no"?>
<!-- Created with Inkscape (http://www.inkscape.org/) -->

<svg
   width="64.0px"
   height="64.0px"
   viewBox="0 0 64.0 64.0"
   version="1.1"
   id="SVGRoot"
   sodipodi:docname="database.svg"
   inkscape:version="1.2.2 (b0a8486541, 2022-12-01)"
   xmlns:inkscape="http://www.inkscape.org/namespaces/inkscape"
   xmlns:sodipodi="http://sodipodi.sourceforge.net/DTD/sodipodi-0.dtd"
   xmlns="http://www.w3.org/2000/svg"
   xmlns:svg="http://www.w3.org/2000/svg">
  <sodipodi:namedview
     id="namedview366"
     pagecolor="#ffffff"
     bordercolor="#000000"
     borderopacity="0.25"
     inkscape:showpageshadow="2"
     inkscape:pageopacity="0.0"
     inkscape:pagecheckerboard="0"
     inkscape:deskcolor="#d1d1d1"
     inkscape:document-units="px"
     showgrid="true"
     inkscape:zoom="3.6703142"
     inkscape:cx="34.057029"
     inkscape:cy="38.688785"
     inkscape:window-width="1366"
     inkscape:window-height="695"
     inkscape:window-x="0"
     inkscape:window-y="120"
     inkscape:window-maximized="1"
     inkscape:current-layer="layer1">
    <inkscape:grid
       type="xygrid"
       id="grid372" />
  </sodipodi:namedview>
  <defs
     id="defs361" />
  <g
     inkscape:label="Layer 1"
     inkscape:groupmode="layer"
     id="layer1">
    <path
       style="fill:#FFFFFF;stroke-width:0.124448"
       d="m 23.376239,63.419501 c -1.792367,-0.56362 -2.084298,-1.257755 -2.161264,-5.138905 l -0.06222,-3.137822 -2.115615,-0.06851 C 9.0808508,54.751861 1.565555,51.504799 0.1766802,46.925406 -0.06555507,46.126709 -0.06958975,45.753887 -0.03680637,27.195245 L -0.00339057,8.2791648 0.46361139,7.3010955 C 5.228309,-2.6778583 35.242994,-2.49548 39.907915,7.5407731 l 0.285365,0.6139434 0.03567,7.5575035 0.03567,7.557503 10.604626,0.03382 10.604624,0.03382 0.587158,0.345152 c 1.505994,0.885273 1.6121,1.380512 1.565843,7.308394 l -0.03739,4.791245 -0.34793,0.62748 -0.347931,0.627483 0.347931,0.616996 0.34793,0.616998 v 5.102364 5.102364 l -0.358151,0.706819 -0.358151,0.706821 0.257591,0.327473 c 0.602826,0.76637 0.793706,10.447314 0.226996,11.512588 -0.323455,0.60801 -0.923735,1.218162 -1.510556,1.535392 l -0.497791,0.269103 -18.729409,0.0236 c -15.070503,0.019 -18.829892,-0.008 -19.243775,-0.138137 z M 61.172324,61.11687 61.536095,60.753101 V 56.133298 51.513496 L 61.230632,51.208034 60.925169,50.90257 H 42.385807 23.846446 l -0.257928,0.327903 c -0.317313,0.403399 -0.411401,9.387988 -0.102368,9.775344 0.37533,0.470454 0.24298,0.467171 18.987877,0.471041 l 18.334527,0.0038 z M 27.872938,59.24866 c -2.012477,-0.489935 -3.039994,-2.896417 -1.996778,-4.676528 1.421418,-2.425467 5.143202,-1.895763 5.795879,0.824898 0.55145,2.298704 -1.526107,4.404988 -3.799101,3.85163 z m 1.440723,-2.363019 c 0.723277,-0.723276 0.269954,-1.751842 -0.772094,-1.751842 -0.923303,0 -1.318168,1.186488 -0.596856,1.793432 0.501761,0.422204 0.917797,0.409564 1.36895,-0.04159 z m 6.73334,2.249741 c -2.58642,-0.92076 -2.843141,-4.5079 -0.412971,-5.770393 2.189256,-1.137336 4.78135,0.541512 4.597768,2.977885 -0.161509,2.143423 -2.19549,3.500697 -4.184797,2.792508 z m 1.709996,-2.208151 c 0.721313,-0.606944 0.326447,-1.793432 -0.596856,-1.793432 -1.042048,0 -1.495371,1.028566 -0.772095,1.751842 0.451154,0.451154 0.867191,0.463794 1.368951,0.04159 z m 11.645428,2.294092 c -0.394872,-0.215977 -0.560016,-0.494223 -0.560016,-0.943545 0,-0.861012 0.965536,-1.319269 1.64822,-0.78227 0.943953,0.742513 -0.0382,2.300127 -1.088204,1.725815 z m 4.231229,0.0052 c -0.644993,-0.36606 -0.765927,-1.160197 -0.254553,-1.67157 0.635837,-0.635838 1.735482,-0.1676 1.735482,0.738981 0,0.753507 -0.851581,1.289774 -1.480929,0.932589 z m 4.067208,-0.172577 c -0.7634,-0.642361 -0.34795,-1.804461 0.645092,-1.804461 0.594552,0 1.131482,0.617475 1.020303,1.173362 -0.170771,0.853856 -1.018763,1.175201 -1.665395,0.631096 z m -8.298437,-4.063779 c -0.988057,-0.540425 -0.630255,-1.97191 0.49288,-1.97191 0.995563,0 1.334228,1.466767 0.444856,1.926678 -0.428652,0.221666 -0.60005,0.229934 -0.937736,0.04524 z m 4.4179,0.05581 c -1.119187,-0.409125 -0.892673,-2.027725 0.28377,-2.027725 1.083493,0 1.394908,1.515528 0.40417,1.966938 -0.351542,0.160174 -0.403503,0.164765 -0.68794,0.06079 z m 4.151208,-0.03283 c -0.678178,-0.280494 -0.870519,-1.180115 -0.361203,-1.689431 0.509558,-0.509558 1.315685,-0.402882 1.635974,0.216493 0.447543,0.865451 -0.393624,1.83738 -1.274771,1.472938 z m -36.75365,-3.052725 c 0.04964,-0.758868 0.142418,-1.133787 0.390184,-1.576848 l 0.32505,-0.581266 -0.359071,-0.711863 c -0.332068,-0.65833 -0.359071,-0.81671 -0.359071,-2.106086 v -1.394222 l -2.333398,-0.08504 C 11.914297,45.251118 6.0218673,43.556766 2.7019153,40.852627 l -0.6680741,-0.544153 0.039191,3.025875 0.039191,3.025872 0.366019,0.660718 c 1.9033374,3.435799 9.5432738,6.043733 17.4300308,5.949839 l 1.244479,-0.01481 z M 60.845612,48.61082 c 0.689082,-0.287918 0.690483,-0.298547 0.690483,-5.238739 v -4.560103 l -0.363771,-0.36377 -0.36377,-0.363772 H 42.496957 c -13.683056,0 -18.380303,0.03659 -18.58342,0.144776 -0.576282,0.306929 -0.574823,0.293787 -0.57899,5.215903 l -0.0039,4.676215 0.280008,0.258166 c 0.154004,0.14199 0.392011,0.285259 0.528904,0.318376 0.701914,0.169803 36.293387,0.08539 36.70611,-0.08705 z M 27.250698,46.250299 c -2.064773,-0.976124 -2.429631,-3.654286 -0.709136,-5.205253 1.897176,-1.710236 4.950087,-0.493654 5.215546,2.078392 0.248767,2.410326 -2.292374,4.173547 -4.50641,3.126861 z m 2.121271,-2.124483 c 0.393425,-0.393424 0.397554,-0.942524 0.01047,-1.392534 -0.615904,-0.716036 -1.820617,-0.242912 -1.820617,0.71501 0,0.877102 1.17193,1.315745 1.81015,0.677524 z m 6.264337,2.073527 c -2.654151,-1.386544 -2.05417,-5.293275 0.904163,-5.887392 2.456372,-0.49331 4.496284,2.150505 3.41844,4.430448 -0.7748,1.638918 -2.719537,2.294396 -4.322603,1.456944 z m 2.19812,-2.073527 c 0.416299,-0.416298 0.41235,-1.044112 -0.0091,-1.440004 -0.734189,-0.689735 -1.911359,-0.109679 -1.755405,0.864984 0.138029,0.862636 1.14778,1.191704 1.764464,0.57502 z m 11.278571,2.13305 c -0.767284,-0.816739 0.125372,-2.081465 1.163091,-1.647878 0.65321,0.272927 0.790937,1.09993 0.27577,1.655898 -0.357305,0.385601 -1.072818,0.381613 -1.438861,-0.008 z m 4.218569,-0.03988 c -0.344656,-0.438159 -0.334866,-1.050795 0.02208,-1.381546 1.025263,-0.950024 2.4468,0.476014 1.459096,1.463718 -0.377426,0.377426 -1.153524,0.33437 -1.481176,-0.08218 z m 4.278764,0.02244 c -0.87739,-0.877389 0.309364,-2.208434 1.357002,-1.521994 0.403135,0.264144 0.52429,0.831111 0.278972,1.305501 -0.320289,0.619376 -1.126416,0.726053 -1.635974,0.216493 z m -8.440018,-4.183694 c -0.416542,-0.327652 -0.459598,-1.10375 -0.08218,-1.481176 0.987704,-0.987704 2.413742,0.433833 1.463719,1.459097 -0.330752,0.356945 -0.943388,0.366736 -1.381546,0.02208 z m 4.208789,-0.04753 c -0.574071,-0.57407 -0.300006,-1.489345 0.52026,-1.73747 0.60743,-0.183745 1.402864,0.604747 1.219776,1.20913 -0.250883,0.828179 -1.163189,1.105189 -1.740036,0.52834 z m 4.231229,0 c -0.393425,-0.393423 -0.397554,-0.942523 -0.01047,-1.392533 0.549874,-0.639266 1.57726,-0.371199 1.75963,0.459123 0.217864,0.991928 -1.02657,1.656 -1.749158,0.93341 z M 21.214975,40.760067 c 0.06278,-2.6366 0.106341,-2.8923 0.586773,-3.444012 0.160847,-0.184713 0.144844,-0.270821 -0.140964,-0.758516 l -0.32241,-0.550149 -2.45732,-0.07533 C 11.779194,35.714363 5.6982378,33.919423 2.4750694,31.089443 l -0.4376702,-0.384279 0.037412,3.036285 c 0.036428,2.956396 0.045593,3.052304 0.3483219,3.645118 1.737268,3.401977 9.3983779,6.079546 17.1740199,6.002349 l 1.555599,-0.01544 z m 39.834113,-4.950762 c 0.463386,-0.355779 0.487007,-0.604472 0.487007,-5.127518 0,-4.650518 -0.03919,-5.01173 -0.565591,-5.213731 -0.1108,-0.04252 -8.487649,-0.0773 -18.61522,-0.0773 H 23.941516 l -0.305462,0.305465 -0.305464,0.305461 v 4.678111 4.678109 l 0.305464,0.305463 0.305462,0.305463 18.455058,-0.0039 c 14.311017,-0.0031 18.499396,-0.038 18.652514,-0.15556 z m -33.43087,-2.11352 c -3.503471,-1.420147 -2.443261,-6.523747 1.280512,-6.164078 3.150203,0.30427 3.921449,4.518925 1.093482,5.975596 -0.593962,0.305948 -1.840128,0.404887 -2.373994,0.188482 z m 1.695443,-2.321963 c 0.694782,-0.694781 0.258463,-1.738338 -0.730803,-1.747885 -0.928474,-0.009 -1.379559,1.169037 -0.691748,1.80648 0.452811,0.41965 0.965422,0.398536 1.422551,-0.0586 z m 6.958705,2.36311 c -3.344643,-1.017395 -2.929607,-5.871012 0.530612,-6.205225 3.671236,-0.354594 4.806069,4.910839 1.323249,6.13965 -0.548536,0.193534 -1.341042,0.221567 -1.853861,0.06557 z m 1.56206,-2.304802 c 0.645633,-0.645632 0.19914,-1.810151 -0.694036,-1.810151 -0.495512,0 -1.116114,0.588182 -1.116114,1.057808 0,0.859437 1.203042,1.359452 1.81015,0.752343 z m 11.313447,2.115614 c -0.643884,-0.643882 -0.199243,-1.81015 0.690119,-1.81015 0.929311,0 1.370088,1.206358 0.670689,1.835606 -0.414735,0.373136 -0.972654,0.3627 -1.360808,-0.02546 z m 4.231228,0 c -0.616683,-0.616683 -0.287616,-1.626434 0.575021,-1.764463 1.006949,-0.161121 1.591881,1.108851 0.817513,1.774935 -0.450011,0.387082 -0.999111,0.382953 -1.392534,-0.01047 z m 4.485781,0.16176 c -0.986663,-0.539663 -0.578899,-1.97191 0.561407,-1.97191 0.378023,0 0.994191,0.655596 0.994191,1.057807 0,0.707833 -0.931725,1.255335 -1.555598,0.914103 z m -8.485434,-4.212841 c -0.599556,-0.241568 -0.729492,-1.186919 -0.231575,-1.684834 0.373611,-0.373613 0.912945,-0.397459 1.342756,-0.05937 0.955855,0.751874 0.0306,2.204234 -1.111181,1.744203 z m 4.254206,-0.01839 c -0.643504,-0.351969 -0.766146,-1.154856 -0.254553,-1.666447 0.393423,-0.393426 0.942523,-0.397554 1.392534,-0.01047 0.907303,0.78043 -0.09004,2.250098 -1.137981,1.676917 z m 4.231228,-0.0066 c -0.932763,-0.534936 -0.612903,-1.965302 0.439483,-1.965302 0.495513,0 1.116115,0.588182 1.116115,1.057807 0,0.711341 -0.940717,1.260132 -1.555598,0.907497 z M 21.214975,30.119777 V 26.38634 l -1.711158,-3.73e-4 C 12.752822,26.384231 4.837013,24.131184 2.4967857,21.545263 2.3667293,21.401551 2.2129975,21.28397 2.1551594,21.28397 c -0.2016139,0 -0.1255561,5.511054 0.084265,6.105751 1.2591069,3.568689 8.7197746,6.364513 17.2021686,6.446373 l 1.773382,0.01711 z m 1.166146,-6.15632 c 0.925251,-0.705724 0.709321,-0.688314 8.536793,-0.688314 h 7.221976 l -0.0012,-7.24909 -0.0012,-7.2490907 -0.294991,-0.6222394 C 33.902958,-0.15508166 4.5264646,0.2184126 2.1875475,8.6080339 1.8918858,9.6685646 2.0526761,17.625978 2.3822046,18.241498 c 1.8745134,3.501363 8.9235054,5.967741 17.1921384,6.015373 2.37443,0.01368 2.408869,0.0101 2.806778,-0.293421 z M 16.859299,16.727113 C -0.44786403,14.704535 2.3222536,4.1702196 20.157168,4.185844 c 16.679999,0.014613 20.635134,9.804264 4.977917,12.321212 -1.190097,0.191311 -7.162773,0.350128 -8.275786,0.220057 z m 6.78241,-2.169935 C 29.157561,14.03709 33.506998,11.867391 32.734115,10.021466 30.963075,5.7915903 14.43411,4.9260714 8.7248695,8.7642538 4.0276913,11.922051 13.319393,15.530463 23.641709,14.557178 Z"
       id="path213" />
  </g>
</svg>
