<?xml version="1.0" encoding="iso-8859-1"?>
<!-- Uploaded to: SVG Repo, www.svgrepo.com, Generator: SVG Repo Mixer Tools -->
<svg fill="#FFFFFF" height="800px" width="800px" version="1.1" id="Layer_1" xmlns="http://www.w3.org/2000/svg" xmlns:xlink="http://www.w3.org/1999/xlink" 
	 viewBox="0 0 504 504" xml:space="preserve">
<g>
	<g>
		<path d="M484.312,86.624H19.688C8.812,86.624,0,95.436,0,106.312v291.376c0,10.876,8.812,19.688,19.688,19.688h464.624
			c10.876,0,19.688-8.812,19.688-19.688V106.312C504,95.436,495.188,86.624,484.312,86.624z M330.56,149.624h71.068V189H330.56
			c-10.884,0-19.736-8.804-19.736-19.688C310.824,158.428,319.676,149.624,330.56,149.624z M330.56,208.688h27.752v39.376H330.56
			c-10.884,0-19.736-8.804-19.736-19.688C310.824,217.492,319.676,208.688,330.56,208.688z M330.56,263.812h55.316v39.376H330.56
			c-10.884,0-19.736-8.804-19.736-19.688C310.824,272.616,319.676,263.812,330.56,263.812z M149.164,362.156
			c-51.984,0-94.276-42.296-94.276-94.276c0-51.98,42.524-94.272,94.508-94.272c2.172,0,4.168,1.764,4.168,3.936v86.272h85.94
			c2.172,0,3.936,1.828,3.936,4C243.44,319.8,201.148,362.156,149.164,362.156z M262.916,248.064H172.58
			c-2.172,0-3.264-1.42-3.264-3.596v-90.34c0-2.172,1.424-3.936,3.6-3.936c51.98,0,94.104,42.12,94.104,94.1
			C267.02,246.472,265.088,248.064,262.916,248.064z M334.688,358.312h-4.128c-10.884,0-19.736-8.804-19.736-19.688
			c0-10.884,8.852-19.688,19.736-19.688h4.128V358.312z M428.904,358.312h-66.656v-39.376H428.9
			c10.884,0,19.736,8.804,19.736,19.688C448.636,349.508,439.784,358.312,428.904,358.312z M428.904,303.188H413.44v-39.376h15.464
			c10.884,0,19.736,8.804,19.736,19.688C448.64,294.384,439.784,303.188,428.904,303.188z M428.904,248.064h-43.028v-39.376h43.028
			c10.884,0,19.736,8.804,19.736,19.688C448.64,239.26,439.784,248.064,428.904,248.064z M429.188,189.272v-39.46
			c11.812,0.028,19.688,8.864,19.688,19.732S441,189.248,429.188,189.272z"/>
	</g>
</g>
</svg>