<?xml version="1.0" encoding="UTF-8" standalone="no"?>
<svg
   version="1.0"
   width="1920.000000pt"
   height="1920.000000pt"
   viewBox="0 0 1920.000000 1920.000000"
   preserveAspectRatio="xMidYMid meet"
   id="svg68"
   sodipodi:docname="front-icon.svg"
   inkscape:version="1.2.2 (b0a8486541, 2022-12-01)"
   xmlns:inkscape="http://www.inkscape.org/namespaces/inkscape"
   xmlns:sodipodi="http://sodipodi.sourceforge.net/DTD/sodipodi-0.dtd"
   xmlns="http://www.w3.org/2000/svg"
   xmlns:svg="http://www.w3.org/2000/svg">
  <defs
     id="defs72" />
  <sodipodi:namedview
     id="namedview70"
     pagecolor="#ffffff"
     bordercolor="#000000"
     borderopacity="0.25"
     inkscape:showpageshadow="2"
     inkscape:pageopacity="0.0"
     inkscape:pagecheckerboard="0"
     inkscape:deskcolor="#d1d1d1"
     inkscape:document-units="pt"
     showgrid="false"
     inkscape:zoom="0.050292969"
     inkscape:cx="-1411.7282"
     inkscape:cy="2048"
     inkscape:window-width="1366"
     inkscape:window-height="445"
     inkscape:window-x="0"
     inkscape:window-y="120"
     inkscape:window-maximized="0"
     inkscape:current-layer="g66" />
  <g
     transform="translate(0.000000,1920.000000) scale(0.100000,-0.100000)"
     fill="#FFFFFF"
     stroke="none"
     id="g66">
    <path
       d="m 3836.545,19147.964 c -167.542,-35.742 -299.3417,-106.109 -428.9074,-231.207 -90.4727,-87.122 -142.9692,-161.957 -197.6996,-280.354 -78.1862,-170.893 -74.8354,-122.863 -79.3031,-1253.213 l -4.4678,-1018.656 -884.6215,-4.467 c -795.2658,-3.351 -893.5571,-5.585 -968.3925,-23.456 C 630.90897,16186.94 174.07793,15713.355 48.979944,15067.76 c -20.10504,-101.643 -21.221979,-292.64 -24.572817,-4992.75 -2.233899,-3347.4884 0,-4932.4352 8.935565,-5031.8435 31.274494,-394.282 182.062248,-726.0151 452.363268,-994.0821 224.5062,-223.3893 472.46827,-360.7738 785.21334,-432.2583 l 108.3438,-25.6898 3198.9342,-5.5847 3198.9343,-5.5847 59.1981,-146.32 c 193.2317,-482.5208 240.1435,-930.4162 148.5538,-1400.6507 -27.9235,-138.5013 -113.9285,-405.4515 -169.7757,-528.3157 l -40.2101,-86.0048 h -471.3514 c -456.831,0 -473.5852,-1.1169 -520.4969,-23.4558 -160.8403,-78.1863 -159.7234,-317.2128 1.1169,-390.9312 44.6778,-20.10506 135.1505,-21.22204 2832.5759,-21.22204 2697.4258,0 2787.8978,1.11698 2832.5758,21.22204 90.473,41.3269 144.086,156.3724 117.279,249.079 -20.105,65.8998 -59.198,113.9285 -116.162,141.8522 -46.911,22.3389 -63.666,23.4558 -520.497,23.4558 h -471.351 l -40.21,86.0048 c -55.848,121.7472 -141.852,389.8144 -169.776,528.3157 -39.093,195.4656 -49.146,327.2653 -42.444,524.9647 10.053,297.1078 71.485,579.6953 189.88,873.4521 l 59.199,148.5539 3198.934,5.5847 3200.051,5.5847 109.461,25.6898 c 312.746,72.6015 558.473,206.635 784.097,432.2583 270.3,268.067 421.088,599.8001 452.363,994.0821 17.871,220.0385 8.936,9906.1965 -8.936,9996.6705 -72.602,358.539 -198.817,610.969 -426.674,847.761 -214.453,223.39 -484.754,374.177 -804.201,449.013 -75.952,17.871 -172.009,20.105 -968.392,23.456 l -884.622,4.467 -4.467,1018.656 c -4.468,1156.039 1.117,1084.555 -99.408,1290.072 -119.514,244.612 -347.371,421.089 -615.438,475.82 -77.07,15.637 -632.192,17.871 -5779.0805,16.754 -5011.7381,-1.117 -5703.1279,-2.234 -5772.3785,-17.872 z m 11548.108,-453.479 c 129.566,-60.315 215.571,-154.139 254.663,-278.12 18.989,-62.549 20.106,-121.747 20.106,-920.363 v -853.348 H 9616.7422 3574.0625 l 2.234,880.154 3.3508,879.037 31.2744,63.665 c 60.3152,122.865 183.1793,224.507 304.9264,253.547 25.6898,5.585 2326.5993,8.936 5723.233,8.936 l 5679.6729,-2.234 z m 274.769,-3598.801 V 13984.322 H 12253.853 8847.1662 l -7.8187,53.613 c -15.6372,111.694 -49.1456,258.015 -83.771,365.241 -204.4011,641.128 -705.9101,1145.988 -1347.0372,1355.974 -242.3774,80.42 -350.7212,96.057 -651.1797,96.057 -230.091,0 -278.1196,-3.351 -389.8143,-25.689 -710.3779,-144.087 -1282.2543,-612.087 -1553.6723,-1272.203 -58.0813,-140.735 -110.5777,-331.733 -135.1505,-485.871 l -13.4034,-87.122 h -545.0697 -546.1869 v 1111.362 1111.361 H 9616.7422 15659.422 Z M 3129.5179,11753.78 l 3.3509,-4175.1453 25.6897,-89.3557 c 81.5371,-288.1721 273.6518,-509.3275 532.7835,-613.2035 168.6589,-67.0168 -292.64,-62.5491 5925.4002,-62.5491 6218.0408,0 5756.7418,-4.4677 5925.4008,62.5491 80.42,32.3914 209.985,113.9285 274.768,174.2436 115.046,106.1099 209.986,266.9501 258.015,438.9599 l 25.689,89.3557 3.352,4175.1453 2.233,4175.145 863.4,-4.467 c 948.288,-3.351 895.791,0 1091.256,-75.953 187.647,-72.602 406.569,-249.079 517.147,-421.089 62.549,-96.057 87.122,-144.085 125.097,-247.962 65.9,-183.179 61.432,154.139 61.432,-4792.816 V 5841.7831 H 9616.7422 468.95175 l 2.2339,4582.8309 3.35084,4581.713 31.2745,98.292 c 41.32701,134.033 83.77097,223.39 154.13858,327.265 167.54196,247.962 436.72603,424.44 730.48293,479.171 59.1982,11.168 282.5875,14.52 906.9605,15.636 l 829.8911,1.117 z m 3908.1952,3647.947 c 360.7736,-64.783 670.1679,-230.091 921.4807,-493.69 418.8549,-437.844 562.9409,-1056.632 383.1127,-1641.912 -40.2102,-130.682 -142.9692,-340.668 -223.3893,-452.363 l -56.9643,-81.537 -94.9404,101.642 c -111.6947,119.514 -244.6113,225.624 -377.5279,302.692 -52.4965,30.159 -99.4082,54.731 -103.8761,54.731 -4.4677,0 -14.5202,4.468 -23.4558,10.053 -12.2864,7.818 -5.5847,22.338 34.6253,68.133 27.9237,31.275 72.6016,94.94 98.2913,140.735 319.4466,557.356 24.5729,1257.682 -599.8001,1424.107 -125.098,33.509 -352.9551,33.509 -478.0531,0 -520.4969,-139.618 -829.8911,-663.466 -698.0914,-1179.495 36.8592,-145.203 115.0454,-293.757 208.8689,-397.633 l 36.8592,-41.327 -97.1743,-53.614 c -145.203,-80.42 -301.5754,-203.283 -414.387,-323.914 l -100.5252,-106.11 -50.2626,70.367 c -144.0861,204.402 -244.6113,447.896 -289.2891,701.443 -23.4559,137.385 -17.8711,440.077 12.2864,580.812 71.4846,339.552 214.4537,604.268 459.065,849.996 147.4369,148.554 261.3654,232.326 432.2582,317.213 163.0741,80.42 333.967,132.916 539.4851,165.308 92.7065,14.52 361.8906,6.702 481.4038,-15.637 z m -202.1673,-981.796 c 221.1553,-35.742 396.516,-204.402 442.3108,-426.674 36.8592,-174.243 -32.3914,-378.644 -167.5419,-495.924 -102.7591,-90.473 -275.8859,-147.437 -402.1007,-132.917 -375.294,42.444 -590.8646,430.025 -425.5566,767.343 73.7185,151.905 220.0385,259.132 390.9312,287.055 78.1863,13.404 81.5371,13.404 161.9572,1.117 z m -2155.7064,-962.808 c 125.098,-864.516 805.3183,-1580.479 1662.0161,-1750.255 1169.4429,-232.324 2295.3247,548.421 2487.4395,1724.565 8.9356,55.848 16.7542,103.877 16.7542,109.462 0,4.467 1533.5668,7.818 3406.6858,7.818 h 3406.687 l -2.234,-2984.48 -3.35,-2985.5983 -30.158,-61.432 c -60.316,-121.7472 -151.905,-203.2843 -274.769,-244.6113 l -68.134,-23.4559 H 9616.7422 3952.7073 l -68.1337,23.4559 c -122.864,41.327 -214.4536,122.8641 -274.7687,244.6113 l -30.1576,61.432 -3.3508,2985.5983 -2.234,2984.48 h 546.1869 546.1867 z m 2335.5348,-559.59 c 111.6947,-25.689 268.0671,-88.239 369.7092,-148.554 97.1743,-56.964 344.0195,-285.939 344.0195,-318.329 0,-21.223 -139.6183,-110.578 -268.0671,-169.777 -260.2485,-121.747 -532.7834,-172.009 -823.1894,-151.904 -275.8859,18.988 -555.1224,111.694 -780.7455,259.131 -39.0931,25.69 -71.4846,51.38 -71.4846,58.082 0,20.105 112.8116,146.32 184.2961,206.635 148.5538,126.215 354.0721,228.974 524.9648,261.365 49.1456,8.936 99.4082,18.989 111.6946,22.339 43.5609,11.17 336.2008,-3.35 408.8024,-18.988 z M 18762.299,5174.9662 c -4.468,-211.1028 -7.819,-241.2604 -34.625,-328.3822 -40.21,-134.0336 -75.952,-211.1028 -148.554,-319.4466 -174.244,-262.4824 -438.96,-434.4921 -751.706,-488.1056 -96.057,-16.7542 -799.733,-17.8711 -8210.6718,-17.8711 -7402.0033,0 -8114.6151,1.1169 -8210.6724,17.8711 -430.0244,73.7185 -770.69304,378.6448 -899.14186,803.0845 -26.80672,91.5895 -30.15756,120.6301 -35.74229,332.8499 l -4.46778,231.2079 H 9616.7422 18766.767 Z M 10979.417,3579.9669 c 0,-3.3508 -20.105,-64.7829 -45.795,-137.3845 -59.199,-172.0097 -102.759,-341.7855 -134.034,-527.1986 -34.625,-202.1673 -37.975,-629.9577 -6.701,-820.9555 27.923,-169.7759 87.121,-399.8668 140.735,-549.5376 l 44.678,-126.215 H 9617.8592 8257.4185 l 59.1981,176.4776 c 110.5777,329.4991 157.4895,638.8932 146.32,979.5618 -10.0525,299.3417 -51.3795,524.9649 -154.1386,836.5929 -30.1576,91.5895 -54.7303,168.6589 -54.7303,170.8928 0,2.2338 613.2035,3.3508 1362.6745,3.3508 749.4708,0 1362.6748,-2.2339 1362.6748,-5.5847 z"
       id="path44"
       style="fill:#ffffff;stroke-width:1.11695" />
    <path
       d="m 4868.6034,18350.465 c -213.3368,-31.274 -404.3346,-168.659 -500.392,-359.657 -103.876,-206.634 -101.6421,-416.621 5.5847,-622.139 183.1792,-351.838 638.8933,-463.533 968.3924,-239.026 99.4083,68.133 166.4251,145.202 221.1555,255.78 98.2913,198.817 100.5251,399.867 4.4678,594.216 -99.4083,202.167 -289.2892,339.552 -513.7953,371.943 -88.2388,12.286 -98.2913,12.286 -185.4131,-1.117 z m 197.6994,-452.363 c 21.222,-10.053 55.8474,-37.976 77.0693,-62.55 82.6541,-97.173 73.7186,-231.207 -21.2219,-319.445 -98.2913,-90.474 -216.6876,-90.474 -314.9789,0 -158.6064,146.319 -56.9642,398.749 160.8402,399.866 33.5084,0 77.0694,-7.819 98.2913,-17.871 z"
       id="path46"
       style="fill:#ffffff;stroke-width:1.11695" />
    <path
       d="m 6672.4716,18351.582 c -246.8451,-37.976 -457.9479,-214.454 -541.7189,-454.598 -32.3915,-92.705 -41.327,-265.832 -16.7542,-360.772 77.0693,-306.044 349.6042,-524.966 654.5306,-524.966 277.0027,0 546.1867,190.999 637.7763,451.247 30.1575,84.887 41.327,274.769 21.222,367.475 -31.2745,153.021 -153.0217,327.265 -292.64,421.088 -119.5132,79.304 -319.4466,122.865 -462.4158,100.526 z m 213.3368,-461.299 c 137.3844,-78.186 157.4894,-278.119 37.9762,-380.878 -53.6134,-44.678 -127.3319,-68.135 -185.4131,-56.965 -50.2626,8.935 -113.9285,40.21 -139.6183,69.25 -32.3914,34.627 -64.7829,118.397 -64.7829,165.309 0,84.888 61.432,178.712 139.6183,213.337 54.7304,24.573 160.8402,18.988 212.2198,-10.053 z"
       id="path48"
       style="fill:#ffffff;stroke-width:1.11695" />
    <path
       d="m 8488.6264,18351.582 c -215.5707,-27.924 -406.5684,-161.957 -505.9767,-356.306 -27.9237,-53.613 -55.8473,-127.332 -63.6659,-163.074 -20.1051,-96.058 -10.0526,-285.938 20.105,-367.475 78.1862,-215.571 254.6638,-374.177 478.053,-431.142 358.5398,-91.589 722.6643,132.917 815.3709,502.627 23.4558,93.823 15.6372,255.78 -16.7542,358.539 -30.1576,96.057 -115.0455,225.623 -192.1148,292.64 -78.1863,69.25 -216.6876,136.267 -325.0314,158.607 -91.5896,17.87 -112.8116,18.987 -209.9859,5.584 z m 220.0384,-475.819 c 58.0812,-46.912 90.4726,-97.174 99.4083,-157.489 24.5727,-163.075 -134.0337,-304.927 -291.5231,-260.249 -203.2842,56.964 -234.5587,333.967 -50.2625,433.375 42.4439,22.339 62.5489,25.689 125.098,22.339 63.6659,-3.351 81.5371,-8.935 117.2793,-37.976 z"
       id="path50"
       style="fill:#ffffff;stroke-width:1.11695" />
    <path
       d="m 14293.396,18268.928 c -48.028,-17.872 -77.068,-41.327 -112.811,-90.472 -18.988,-27.925 -24.573,-54.731 -29.041,-150.788 l -5.585,-117.28 -113.928,-5.584 c -102.759,-5.585 -117.279,-8.936 -161.957,-39.093 -113.929,-79.304 -129.565,-232.326 -33.508,-332.851 48.028,-50.262 68.133,-56.963 192.115,-63.665 l 117.278,-5.585 5.585,-117.28 c 6.702,-128.449 13.404,-147.437 71.485,-198.817 111.695,-98.29 274.769,-64.782 337.318,68.135 21.221,46.912 26.806,75.952 26.806,155.255 v 96.057 l 115.046,4.468 c 103.876,3.351 120.63,6.702 161.958,34.626 137.383,90.473 123.98,297.107 -24.574,370.825 -46.911,23.457 -71.484,27.925 -154.138,27.925 h -98.292 v 87.122 c 0,99.407 -11.168,146.319 -46.911,198.815 -50.263,73.719 -163.074,109.462 -246.846,78.187 z"
       id="path52"
       style="fill:#ffffff;stroke-width:1.11695" />
    <path
       d="m 10069.105,17883.581 c -86.0045,-39.092 -128.4484,-106.109 -128.4484,-198.816 0,-70.368 35.7422,-138.501 91.5894,-177.595 l 45.795,-32.391 1414.055,-3.351 c 777.394,-1.116 1430.808,0 1450.913,3.351 45.794,8.936 120.63,74.836 142.969,126.215 32.391,78.186 8.935,187.647 -52.497,244.612 -68.133,62.548 10.053,59.198 -1514.579,59.198 -1343.687,0 -1407.353,-1.118 -1449.797,-21.223 z"
       id="path54"
       style="fill:#ffffff;stroke-width:1.11695" />
    <path
       d="m 9974.165,12396.024 c -176.4776,-50.262 -212.2198,-291.523 -58.0812,-389.814 l 51.3795,-32.392 H 12137.69 c 1798.284,0 2176.928,2.235 2207.086,15.638 49.145,20.105 104.993,86.005 119.514,141.852 25.689,92.707 -20.105,197.699 -104.994,246.845 l -45.795,25.69 -2150.121,2.234 c -1405.119,1.117 -2163.5253,-2.234 -2189.215,-10.053 z"
       id="path56"
       style="fill:#ffffff;stroke-width:1.11695" />
    <path
       d="m 10085.86,11022.18 c -404.3349,-58.081 -733.8342,-390.931 -793.0323,-799.733 -8.9355,-58.082 -11.1695,-313.862 -8.9355,-800.8508 4.4677,-805.3184 1.1169,-770.693 92.7065,-961.6908 125.098,-260.2485 327.2653,-427.7905 614.3205,-509.3275 l 89.3558,-25.6899 2021.673,-3.3508 c 2226.074,-3.3508 2121.081,-5.5847 2307.611,65.8999 216.688,83.7709 413.27,270.301 512.678,485.8716 83.772,183.1792 89.356,247.9621 89.356,1010.8364 0,647.8289 -4.468,738.3019 -41.327,868.9839 -88.239,309.394 -341.786,557.356 -667.933,651.18 l -89.357,25.69 -2027.257,1.116 c -1207.419,1.118 -2056.298,-2.233 -2099.859,-8.935 z m 4047.813,-433.375 c 145.203,-21.222 274.77,-103.876 352.955,-225.623 80.42,-122.865 79.303,-117.28 75.953,-919.247 l -3.351,-714.8456 -42.444,-86.0049 c -50.263,-98.2913 -128.448,-180.9453 -220.038,-226.74 -125.099,-63.666 -40.21,-61.4321 -2151.24,-61.4321 -1353.738,0 -1963.591,3.3509 -2009.386,12.2864 -201.0501,36.8592 -369.709,203.2842 -407.6852,400.9837 -15.6373,84.8879 -14.5203,1344.8035 1.117,1420.7565 42.4439,201.05 218.9215,369.709 417.7382,398.749 97.174,13.403 3890.324,14.52 3986.381,1.117 z"
       id="path58"
       style="fill:#ffffff;stroke-width:1.11695" />
    <path
       d="m 4350.3402,10850.17 c -110.5776,-56.964 -154.1385,-187.647 -99.4081,-295.991 21.222,-43.56 87.1217,-96.057 135.1505,-109.46 62.5489,-17.871 3828.8919,-16.755 3898.1426,1.117 90.4727,22.338 159.7233,117.28 159.7233,217.805 0,46.912 -43.5609,125.097 -92.7065,164.19 l -43.5609,34.626 -1961.3578,2.234 c -1760.3073,3.35 -1965.8255,1.117 -1995.9831,-14.521 z"
       id="path60"
       style="fill:#ffffff;stroke-width:1.11695" />
    <path
       d="m 4369.3284,9680.728 c -20.1051,-5.5849 -55.8474,-30.1581 -79.3033,-52.4966 -102.759,-100.5252 -75.9523,-274.769 53.6134,-342.9027 l 49.1457,-25.6898 H 6331.803 c 1857.4818,0 1941.2527,1.1169 1983.6968,21.2219 164.191,74.8355 165.308,318.3293 2.2338,393.1655 -45.7948,20.1051 -102.7591,21.2218 -1979.2289,20.1051 -1321.3475,-1.1179 -1943.4866,-4.4682 -1969.1763,-13.4034 z"
       id="path62"
       style="fill:#ffffff;stroke-width:1.11695" />
    <path
       d="m 4417.3571,8516.8696 c -5.5848,-2.2339 -24.5729,-6.7016 -41.3271,-10.0525 -39.0931,-8.9356 -104.9929,-65.8999 -128.4488,-111.6946 -23.4559,-44.6779 -23.4559,-147.4369 0,-192.1148 22.3389,-43.5609 88.2388,-101.6421 128.4488,-112.8116 16.7542,-5.5847 902.4926,-8.9355 1968.0595,-8.9355 1792.6987,0 1940.1357,1.1168 1972.5271,18.988 159.7234,88.2388 167.542,300.4586 12.2865,389.8143 l -46.9118,26.8067 -1926.7324,2.2339 c -1059.9821,1.117 -1931.2001,0 -1937.9018,-2.2339 z"
       id="path64"
       style="fill:#ffffff;stroke-width:1.11695" />
  </g>
</svg>
